<svg width="266" height="150" viewBox="0 0 266 150" fill="none" xmlns="http://www.w3.org/2000/svg">
<path d="M23.4909 29.0451L20.5931 29.8205C18.0703 30.4956 18.0147 38.5611 20.441 48.4714C20.58 49.0395 20.7848 49.8282 20.9398 50.4058C21.1343 51.1307 21.2785 51.6283 21.4869 52.3271C24.342 61.9016 28.4599 69.0716 30.9458 68.4064L33.8436 67.6309C31.3577 68.2961 27.2398 61.1262 24.3847 51.5517C24.1763 50.8528 24.0321 50.3552 23.8376 49.6304C23.6826 49.0527 23.4778 48.2641 23.3387 47.696C20.9125 37.7856 20.9681 29.7202 23.4909 29.0451Z" fill="white"/>
<path d="M20.5931 29.8205L17.6953 30.596C15.1726 31.271 15.1169 39.3365 17.5432 49.2468C17.6823 49.8149 17.9058 50.5985 18.0608 51.1761C18.2553 51.901 18.3808 52.4037 18.5892 53.1026C21.4443 62.6771 25.5622 69.847 28.048 69.1818L30.9458 68.4064C28.4599 69.0716 24.342 61.9016 21.4869 52.3271C21.2785 51.6283 21.1343 51.1307 20.9398 50.4058C20.7848 49.8282 20.58 49.0395 20.441 48.4714C18.0147 38.5611 18.0703 30.4956 20.5931 29.8205Z" fill="white"/>
<path d="M17.6953 30.596L14.7975 31.3714C12.2748 32.0465 12.2191 40.1119 14.6454 50.0223C14.7845 50.5903 14.9893 51.379 15.1443 51.9567C15.3189 52.6077 15.5054 53.2478 15.6914 53.878C18.5465 63.4525 22.6644 70.6224 25.1503 69.9572L28.048 69.1818C25.5622 69.847 21.4443 62.6771 18.5892 53.1026C18.3808 52.4037 18.2553 51.901 18.0608 51.1761C17.9058 50.5985 17.6823 49.8149 17.5432 49.2468C15.1169 39.3365 15.1726 31.271 17.6953 30.596Z" fill="white"/>
<path d="M93.4069 29.8199L90.5091 29.0444C93.0319 29.7195 93.0875 37.785 90.6613 47.6953C90.5222 48.2634 90.3174 49.0521 90.1624 49.6297C89.9679 50.3546 89.8237 50.8522 89.6153 51.5511C86.7602 61.1256 82.6423 68.2955 80.1564 67.6303L83.0542 68.4057C85.5401 69.0709 89.658 61.901 92.5131 52.3265C92.7215 51.6276 92.8657 51.13 93.0602 50.4052C93.2152 49.8275 93.42 49.0388 93.559 48.4708C95.9853 38.5604 95.9297 30.4949 93.4069 29.8199Z" fill="white"/>
<path d="M96.3047 30.5953L93.4069 29.8199C95.9297 30.4949 95.9853 38.5604 93.559 48.4708C93.42 49.0388 93.2152 49.8275 93.0602 50.4052C92.8657 51.13 92.7215 51.6276 92.5131 52.3265C89.658 61.901 85.5401 69.0709 83.0542 68.4057L85.952 69.1811C88.4378 69.8463 92.5557 62.6764 95.4108 53.1019C95.6192 52.403 95.7447 51.9003 95.9392 51.1755C96.0942 50.5978 96.3177 49.8143 96.4568 49.2462C98.8831 39.3358 98.8274 31.2704 96.3047 30.5953Z" fill="white"/>
<path d="M99.2025 31.3707L96.3047 30.5953C98.8274 31.2704 98.8831 39.3358 96.4568 49.2462C96.3177 49.8143 96.0942 50.5978 95.9392 51.1755C95.7447 51.9003 95.6192 52.403 95.4108 53.1019C92.5557 62.6764 88.4378 69.8463 85.952 69.1811L88.8497 69.9566C91.3356 70.6218 95.4535 63.4519 98.3086 53.8773C98.4946 53.2471 98.6811 52.607 98.8557 51.956C99.0107 51.3784 99.2155 50.5897 99.3546 50.0216C101.781 40.1113 101.725 32.0458 99.2025 31.3707Z" fill="white"/>
<path d="M15.1443 51.9567C14.9696 51.3056 14.7999 50.661 14.6454 50.0223M15.1443 51.9567C14.9893 51.379 14.7845 50.5903 14.6454 50.0223M15.1443 51.9567C15.3387 52.6813 15.4831 53.1795 15.6914 53.878M15.1443 51.9567C15.3189 52.6077 15.5054 53.2478 15.6914 53.878M14.6454 50.0223C12.2191 40.1119 12.2748 32.0465 14.7975 31.3714L17.6953 30.596M14.6454 50.0223C14.6454 50.0223 14.6454 50.0223 10.742 51.4104M14.6454 50.0223L10.742 51.4104M15.6914 53.878C15.6914 53.878 15.6914 53.878 11.7437 55.3957M15.6914 53.878C18.5465 63.4525 22.6644 70.6224 25.1503 69.9572L28.048 69.1818M15.6914 53.878L11.7437 55.3957M28.048 69.1818L30.9458 68.4064M28.048 69.1818C25.5622 69.847 21.4443 62.6771 18.5892 53.1026C18.3808 52.4037 18.2553 51.901 18.0608 51.1761C17.9058 50.5985 17.6823 49.8149 17.5432 49.2468C15.1169 39.3365 15.1726 31.271 17.6953 30.596M17.6953 30.596L20.5931 29.8205M30.9458 68.4064C28.4599 69.0716 24.342 61.9016 21.4869 52.3271C21.2785 51.6283 21.1343 51.1307 20.9398 50.4058C20.7848 49.8282 20.58 49.0395 20.441 48.4714C18.0147 38.5611 18.0703 30.4956 20.5931 29.8205M30.9458 68.4064L33.8436 67.6309M20.5931 29.8205L23.4909 29.0451M33.8436 67.6309C31.3577 68.2961 27.2398 61.1262 24.3847 51.5517C24.1763 50.8528 24.0321 50.3552 23.8376 49.6304C23.6826 49.0527 23.4778 48.2641 23.3387 47.696C20.9125 37.7856 20.9681 29.7202 23.4909 29.0451M33.8436 67.6309C36.3189 66.9685 36.2917 58.7702 34 49.1064M23.4909 29.0451C26.0135 28.37 30.1381 35.4592 32.9987 45.253M32.9987 45.253C31.3736 45.6019 29.7566 45.9872 28.1496 46.4086C27.6161 46.5514 27.4154 47.5309 27.7013 48.5964C27.9872 49.6619 28.6514 50.41 29.1848 50.2672L29.1873 50.2666C30.8015 49.8433 32.3959 49.4565 34 49.1064M32.9987 45.253L34 49.1064M10.742 51.4104C9.242 52.498 10.242 54.9947 11.742 55.3964L11.7437 55.3957M98.8557 51.956C99.0304 51.305 99.2001 50.6603 99.3546 50.0216M98.8557 51.956C99.0107 51.3784 99.2155 50.5897 99.3546 50.0216M98.8557 51.956C98.6613 52.6807 98.5169 53.1788 98.3086 53.8773M98.8557 51.956C98.6811 52.607 98.4946 53.2471 98.3086 53.8773M99.3546 50.0216C101.781 40.1113 101.725 32.0458 99.2025 31.3707L96.3047 30.5953M99.3546 50.0216C99.3546 50.0216 99.3546 50.0216 103.258 51.4097M99.3546 50.0216L103.258 51.4097M98.3086 53.8773C98.3086 53.8773 98.3086 53.8773 102.256 55.3951M98.3086 53.8773C95.4535 63.4519 91.3356 70.6218 88.8497 69.9566L85.952 69.1811M98.3086 53.8773L102.256 55.3951M85.952 69.1811L83.0542 68.4057M85.952 69.1811C88.4378 69.8463 92.5557 62.6764 95.4108 53.1019C95.6192 52.403 95.7447 51.9003 95.9392 51.1755C96.0942 50.5978 96.3177 49.8143 96.4568 49.2462C98.8831 39.3358 98.8274 31.2704 96.3047 30.5953M96.3047 30.5953L93.4069 29.8199M83.0542 68.4057C85.5401 69.0709 89.658 61.901 92.5131 52.3265C92.7215 51.6276 92.8657 51.13 93.0602 50.4052C93.2152 49.8275 93.42 49.0388 93.559 48.4708C95.9853 38.5604 95.9297 30.4949 93.4069 29.8199M83.0542 68.4057L80.1564 67.6303M93.4069 29.8199L90.5091 29.0444M80.1564 67.6303C82.6423 68.2955 86.7602 61.1256 89.6153 51.5511C89.8237 50.8522 89.9679 50.3546 90.1624 49.6297C90.3174 49.0521 90.5222 48.2634 90.6613 47.6953C93.0875 37.785 93.0319 29.7195 90.5091 29.0444M80.1564 67.6303C77.6811 66.9679 77.7083 58.7695 80 49.1057M90.5091 29.0444C87.9865 28.3694 83.8619 35.4586 81.0013 45.2524M81.0013 45.2524C82.6264 45.6013 84.2434 45.9865 85.8504 46.408C86.3839 46.5507 86.5846 47.5302 86.2987 48.5958C86.0128 49.6613 85.3486 50.4093 84.8152 50.2666L84.8127 50.2659C83.1985 49.8426 81.6041 49.4559 80 49.1057M81.0013 45.2524L80 49.1057M103.258 51.4097C104.758 52.4974 103.758 54.9941 102.258 55.3957L102.256 55.3951" stroke="black"/>
<path d="M20.5931 29.8205L17.6953 30.596C15.1726 31.271 15.1169 39.3365 17.5432 49.2468C17.6823 49.8149 17.9058 50.5985 18.0608 51.1761C18.2553 51.901 18.3808 52.4037 18.5892 53.1026C21.4443 62.6771 25.5622 69.847 28.048 69.1818L30.9458 68.4064C28.4599 69.0716 24.342 61.9016 21.4869 52.3271C21.2785 51.6283 21.1343 51.1307 20.9398 50.4058C20.7848 49.8282 20.58 49.0395 20.441 48.4714C18.0147 38.5611 18.0703 30.4956 20.5931 29.8205Z" fill="white"/>
<path d="M17.6953 30.596L14.7975 31.3714C12.2748 32.0465 12.2191 40.1119 14.6454 50.0223C14.7845 50.5903 14.9893 51.379 15.1443 51.9567C15.3189 52.6077 15.5054 53.2478 15.6914 53.878C18.5465 63.4525 22.6644 70.6224 25.1503 69.9572L28.048 69.1818C25.5622 69.847 21.4443 62.6771 18.5892 53.1026C18.3808 52.4037 18.2553 51.901 18.0608 51.1761C17.9058 50.5985 17.6823 49.8149 17.5432 49.2468C15.1169 39.3365 15.1726 31.271 17.6953 30.596Z" fill="white"/>
<path d="M96.3047 30.5953L93.4069 29.8199C95.9297 30.4949 95.9853 38.5604 93.559 48.4708C93.42 49.0388 93.2152 49.8275 93.0602 50.4052C92.8657 51.13 92.7215 51.6276 92.5131 52.3265C89.658 61.901 85.5401 69.0709 83.0542 68.4057L85.952 69.1811C88.4378 69.8463 92.5557 62.6764 95.4108 53.1019C95.6192 52.403 95.7447 51.9003 95.9392 51.1755C96.0942 50.5978 96.3177 49.8143 96.4568 49.2462C98.8831 39.3358 98.8274 31.2704 96.3047 30.5953Z" fill="white"/>
<path d="M99.2025 31.3707L96.3047 30.5953C98.8274 31.2704 98.8831 39.3358 96.4568 49.2462C96.3177 49.8143 96.0942 50.5978 95.9392 51.1755C95.7447 51.9003 95.6192 52.403 95.4108 53.1019C92.5557 62.6764 88.4378 69.8463 85.952 69.1811L88.8497 69.9566C91.3356 70.6218 95.4535 63.4519 98.3086 53.8773C98.4946 53.2471 98.6811 52.607 98.8557 51.956C99.0107 51.3784 99.2155 50.5897 99.3546 50.0216C101.781 40.1113 101.725 32.0458 99.2025 31.3707Z" fill="white"/>
<path d="M15.1443 51.9567C14.9696 51.3056 14.7999 50.661 14.6454 50.0223M15.1443 51.9567C14.9893 51.379 14.7845 50.5903 14.6454 50.0223M15.1443 51.9567C15.3387 52.6813 15.4831 53.1795 15.6914 53.878M15.1443 51.9567C15.3189 52.6077 15.5054 53.2478 15.6914 53.878M14.6454 50.0223C12.2191 40.1119 12.2748 32.0465 14.7975 31.3714L17.6953 30.596M14.6454 50.0223C14.6454 50.0223 14.6454 50.0223 10.742 51.4104M14.6454 50.0223L10.742 51.4104M15.6914 53.878C15.6914 53.878 15.6914 53.878 11.7437 55.3957M15.6914 53.878C18.5465 63.4525 22.6644 70.6224 25.1503 69.9572L28.048 69.1818M15.6914 53.878L11.7437 55.3957M28.048 69.1818L30.9458 68.4064M28.048 69.1818C25.5622 69.847 21.4443 62.6771 18.5892 53.1026C18.3808 52.4037 18.2553 51.901 18.0608 51.1761C17.9058 50.5985 17.6823 49.8149 17.5432 49.2468C15.1169 39.3365 15.1726 31.271 17.6953 30.596M17.6953 30.596L20.5931 29.8205M30.9458 68.4064C28.4599 69.0716 24.342 61.9016 21.4869 52.3271C21.2785 51.6283 21.1343 51.1307 20.9398 50.4058C20.7848 49.8282 20.58 49.0395 20.441 48.4714C18.0147 38.5611 18.0703 30.4956 20.5931 29.8205M30.9458 68.4064L33.8436 67.6309M20.5931 29.8205L23.4909 29.0451M33.8436 67.6309C31.3577 68.2961 27.2398 61.1262 24.3847 51.5517C24.1763 50.8528 24.0321 50.3552 23.8376 49.6304C23.6826 49.0527 23.4778 48.2641 23.3387 47.696C20.9125 37.7856 20.9681 29.7202 23.4909 29.0451M33.8436 67.6309C36.3189 66.9685 36.2917 58.7702 34 49.1064M23.4909 29.0451C26.0135 28.37 30.1381 35.4592 32.9987 45.253M32.9987 45.253C31.3736 45.6019 29.7566 45.9872 28.1496 46.4086C27.6161 46.5514 27.4154 47.5309 27.7013 48.5964C27.9872 49.6619 28.6514 50.41 29.1848 50.2672L29.1873 50.2666C30.8015 49.8433 32.3959 49.4565 34 49.1064M32.9987 45.253L34 49.1064M10.742 51.4104C9.242 52.498 10.242 54.9947 11.742 55.3964L11.7437 55.3957M98.8557 51.956C99.0304 51.305 99.2001 50.6603 99.3546 50.0216M98.8557 51.956C99.0107 51.3784 99.2155 50.5897 99.3546 50.0216M98.8557 51.956C98.6613 52.6807 98.5169 53.1788 98.3086 53.8773M98.8557 51.956C98.6811 52.607 98.4946 53.2471 98.3086 53.8773M99.3546 50.0216C101.781 40.1113 101.725 32.0458 99.2025 31.3707L96.3047 30.5953M99.3546 50.0216C99.3546 50.0216 99.3546 50.0216 103.258 51.4097M99.3546 50.0216L103.258 51.4097M98.3086 53.8773C98.3086 53.8773 98.3086 53.8773 102.256 55.3951M98.3086 53.8773C95.4535 63.4519 91.3356 70.6218 88.8497 69.9566L85.952 69.1811M98.3086 53.8773L102.256 55.3951M85.952 69.1811L83.0542 68.4057M85.952 69.1811C88.4378 69.8463 92.5557 62.6764 95.4108 53.1019C95.6192 52.403 95.7447 51.9003 95.9392 51.1755C96.0942 50.5978 96.3177 49.8143 96.4568 49.2462C98.8831 39.3358 98.8274 31.2704 96.3047 30.5953M96.3047 30.5953L93.4069 29.8199M83.0542 68.4057C85.5401 69.0709 89.658 61.901 92.5131 52.3265C92.7215 51.6276 92.8657 51.13 93.0602 50.4052C93.2152 49.8275 93.42 49.0388 93.559 48.4708C95.9853 38.5604 95.9297 30.4949 93.4069 29.8199M83.0542 68.4057L80.1564 67.6303M93.4069 29.8199L90.5091 29.0444M80.1564 67.6303C82.6423 68.2955 86.7602 61.1256 89.6153 51.5511C89.8237 50.8522 89.9679 50.3546 90.1624 49.6297C90.3174 49.0521 90.5222 48.2634 90.6613 47.6953C93.0875 37.785 93.0319 29.7195 90.5091 29.0444M80.1564 67.6303C77.6811 66.9679 77.7083 58.7695 80 49.1057M90.5091 29.0444C87.9865 28.3694 83.8619 35.4586 81.0013 45.2524M81.0013 45.2524C82.6264 45.6013 84.2434 45.9865 85.8504 46.408C86.3839 46.5507 86.5846 47.5302 86.2987 48.5958C86.0128 49.6613 85.3486 50.4093 84.8152 50.2666L84.8127 50.2659C83.1985 49.8426 81.6041 49.4559 80 49.1057M81.0013 45.2524L80 49.1057M103.258 51.4097C104.758 52.4974 103.758 54.9941 102.258 55.3957L102.256 55.3951" stroke="white"/>
<path d="M48 43.2018C47 43.2641 47.5 46.8674 49 46.9995C50 46.3851 49.5 43.2018 48 43.2018Z" fill="white"/>
<path d="M66 43.2012C67 43.2635 66.5 46.8668 65 46.9989C64 46.3845 64.5 43.2012 66 43.2012Z" fill="white"/>
<path d="M15.1443 51.6779C14.9696 51.0491 14.7999 50.4265 14.6454 49.8096L10.742 51.1503C9.242 52.2008 10.242 54.6121 11.742 55L11.7437 54.9994L15.6914 53.5335C15.4831 52.8589 15.3387 52.3778 15.1443 51.6779Z" fill="white"/>
<path d="M27.7013 48.4325C27.9872 49.4616 28.6514 50.1841 29.1848 50.0462L29.1873 50.0456C30.8015 49.6367 32.3959 49.2632 34 48.9251C39.2775 47.8125 44.1701 47.2405 49 46.9995C47.5 46.8674 47 43.2641 48 43.2018C43.052 43.4878 38.1212 44.1031 32.9987 45.2034C31.3736 45.5404 29.7566 45.9125 28.1496 46.3195C27.6161 46.4574 27.4154 47.4034 27.7013 48.4325Z" fill="white"/>
<path d="M54 43.0064C54.9954 42.9973 55.9949 42.9987 57 43.0095C58.0051 42.9987 59.0046 42.9966 60 43.0058C61 43.4911 61 45.9025 59 46.8549C58.3355 46.8546 57.6691 46.8594 57 46.8676C56.3309 46.8594 55.6645 46.8552 55 46.8556C53 45.9031 53 43.4918 54 43.0064Z" fill="white"/>
<path d="M84.8152 50.0456C85.3486 50.1834 86.0128 49.461 86.2987 48.4319C86.5846 47.4028 86.3839 46.4568 85.8504 46.3189C84.2434 45.9118 82.6264 45.5398 81.0013 45.2028C75.8788 44.1025 70.948 43.4871 66 43.2012C67 43.2635 66.5 46.8668 65 46.9989C69.8299 47.2399 74.7225 47.8119 80 48.9244C81.6041 49.2626 83.1985 49.6361 84.8127 50.045L84.8152 50.0456Z" fill="white"/>
<path d="M99.3546 49.809C99.2001 50.4259 99.0304 51.0485 98.8557 51.6773C98.6613 52.3771 98.5169 52.8583 98.3086 53.5329L102.256 54.9987L102.258 54.9994C103.758 54.6115 104.758 52.2001 103.258 51.1497L99.3546 49.809Z" fill="white"/>
<path d="M15.1443 51.6779C14.9696 51.0491 14.7999 50.4265 14.6454 49.8096M15.1443 51.6779C14.9893 51.12 14.7845 50.3583 14.6454 49.8096M15.1443 51.6779C15.3387 52.3778 15.4831 52.8589 15.6914 53.5335M15.1443 51.6779C15.3189 52.3066 15.5054 52.9249 15.6914 53.5335M14.6454 49.8096C14.6454 49.8096 14.6454 49.8096 10.742 51.1503M14.6454 49.8096L10.742 51.1503M15.6914 53.5335C15.6914 53.5335 15.6914 53.5335 11.7437 54.9994M15.6914 53.5335L11.7437 54.9994M10.742 51.1503C9.242 52.2008 10.242 54.6121 11.742 55L11.7437 54.9994M48 43.2018C47 43.2641 47.5 46.8674 49 46.9995M48 43.2018C49.5 43.2018 50 46.3851 49 46.9995M48 43.2018C43.052 43.4878 38.1212 44.1031 32.9987 45.2034C31.3736 45.5404 29.7566 45.9125 28.1496 46.3195C27.6161 46.4574 27.4154 47.4034 27.7013 48.4325C27.9872 49.4616 28.6514 50.1841 29.1848 50.0462L29.1873 50.0456C30.8015 49.6367 32.3959 49.2632 34 48.9251C39.2775 47.8125 44.1701 47.2405 49 46.9995M98.8557 51.6773C99.0304 51.0485 99.2001 50.4259 99.3546 49.809M98.8557 51.6773C99.0107 51.1194 99.2155 50.3576 99.3546 49.809M98.8557 51.6773C98.6613 52.3771 98.5169 52.8583 98.3086 53.5329M98.8557 51.6773C98.6811 52.306 98.4946 52.9243 98.3086 53.5329M99.3546 49.809C99.3546 49.809 99.3546 49.809 103.258 51.1497M99.3546 49.809L103.258 51.1497M98.3086 53.5329C98.3086 53.5329 98.3086 53.5329 102.256 54.9987M98.3086 53.5329L102.256 54.9987M103.258 51.1497C104.758 52.2001 103.758 54.6115 102.258 54.9994L102.256 54.9987M66 43.2012C67 43.2635 66.5 46.8668 65 46.9989M66 43.2012C64.5 43.2012 64 46.3845 65 46.9989M66 43.2012C70.948 43.4871 75.8788 44.1025 81.0013 45.2028C82.6264 45.5398 84.2434 45.9118 85.8504 46.3189C86.3839 46.4568 86.5846 47.4028 86.2987 48.4319C86.0128 49.461 85.3486 50.1834 84.8152 50.0456L84.8127 50.045C83.1985 49.6361 81.6041 49.2626 80 48.9244C74.7225 47.8119 69.8299 47.2399 65 46.9989M57 43.0095C55.9949 42.9987 54.9954 42.9973 54 43.0064C53 43.4918 53 45.9031 55 46.8556C55.6645 46.8552 56.3309 46.8594 57 46.8676C57.6691 46.8594 58.3355 46.8546 59 46.8549C61 45.9025 61 43.4911 60 43.0058C59.0046 42.9966 58.0051 42.9987 57 43.0095Z" stroke="white"/>
<path d="M143.239 82.5922C143.741 81.1363 144 79.5759 144 78H138C138 78.6303 137.897 79.2545 137.696 79.8369C137.494 80.4193 137.2 80.9484 136.828 81.3941C136.457 81.8398 136.016 82.1934 135.531 82.4346C135.045 82.6758 134.525 82.8 134 82.8C133.475 82.8 132.955 82.6758 132.469 82.4346C131.984 82.1934 131.543 81.8398 131.172 81.3941C130.8 80.9484 130.506 80.4193 130.304 79.8369C130.103 79.2545 130 78.6303 130 78V10H124V78C124 79.5759 124.259 81.1363 124.761 82.5922C125.264 84.0481 126 85.371 126.929 86.4853C127.858 87.5996 128.96 88.4835 130.173 89.0866C131.386 89.6896 132.687 90 134 90C135.313 90 136.614 89.6896 137.827 89.0866C139.04 88.4835 140.142 87.5996 141.071 86.4853C142 85.371 142.736 84.0481 143.239 82.5922Z" fill="white"/>
<path d="M199.239 67.4078C199.741 68.8637 200 70.4241 200 72V90H194V72C194 71.3697 193.897 70.7455 193.696 70.1631C193.495 69.5808 193.2 69.0516 192.828 68.6059C192.457 68.1602 192.016 67.8066 191.531 67.5654C191.045 67.3242 190.525 67.2 190 67.2C189.475 67.2 188.955 67.3242 188.469 67.5654C187.984 67.8066 187.543 68.1602 187.172 68.6059C186.8 69.0516 186.506 69.5808 186.304 70.1631C186.103 70.7455 186 71.3697 186 72V90H180V72C180 70.4241 180.259 68.8637 180.761 67.4078C181.264 65.9519 182 64.629 182.929 63.5147C183.858 62.4004 184.96 61.5165 186.173 60.9134C187.386 60.3104 188.687 60 190 60C191.313 60 192.614 60.3104 193.827 60.9134C195.04 61.5165 196.142 62.4004 197.071 63.5147C198 64.629 198.736 65.9519 199.239 67.4078Z" fill="white"/>
<path d="M227.239 67.4078C227.741 68.8637 228 70.4241 228 72V90H222V72C222 71.3697 221.897 70.7455 221.696 70.1631C221.495 69.5808 221.2 69.0516 220.828 68.6059C220.457 68.1602 220.016 67.8066 219.531 67.5654C219.045 67.3242 218.525 67.2 218 67.2C217.475 67.2 216.955 67.3242 216.469 67.5654C215.984 67.8066 215.543 68.1602 215.172 68.6059C214.8 69.0516 214.506 69.5808 214.304 70.1631C214.103 70.7455 214 71.3697 214 72V90H208V72C208 70.4241 208.259 68.8637 208.761 67.4078C209.264 65.9519 210 64.629 210.929 63.5147C211.858 62.4004 212.96 61.5165 214.173 60.9134C215.386 60.3104 216.687 60 218 60C219.313 60 220.614 60.3104 221.827 60.9134C223.04 61.5165 224.142 62.4004 225.071 63.5147C226 64.629 226.736 65.9519 227.239 67.4078Z" fill="white"/>
<path d="M255.239 67.4078C255.741 68.8637 256 70.4241 256 72H250C250 71.3697 249.897 70.7455 249.696 70.1631C249.495 69.5808 249.2 69.0516 248.828 68.6059C248.457 68.1602 248.016 67.8066 247.531 67.5654C247.045 67.3242 246.525 67.2 246 67.2C245.475 67.2 244.955 67.3242 244.469 67.5654C243.984 67.8066 243.543 68.1602 243.172 68.6059C242.8 69.0516 242.506 69.5808 242.304 70.1631C242.103 70.7455 242 71.3697 242 72V90H236V72C236 70.4241 236.259 68.8637 236.761 67.4078C237.264 65.9519 238 64.629 238.929 63.5147C239.858 62.4004 240.96 61.5165 242.173 60.9134C243.386 60.3104 244.687 60 246 60C247.313 60 248.614 60.3104 249.827 60.9134C251.04 61.5165 252.142 62.4004 253.071 63.5147C254 64.629 254.736 65.9519 255.239 67.4078Z" fill="white"/>
<path d="M87.2388 82.5922C87.7413 81.1363 88 79.5759 88 78H82C82 78.6303 81.8965 79.2545 81.6955 79.8369C81.4945 80.4193 81.1999 80.9484 80.8284 81.3941C80.457 81.8398 80.016 82.1934 79.5307 82.4346C79.0454 82.6758 78.5253 82.8 78 82.8C77.4747 82.8 76.9546 82.6758 76.4693 82.4346C75.984 82.1934 75.543 81.8398 75.1716 81.3941C74.8001 80.9484 74.5055 80.4193 74.3045 79.8369C74.1035 79.2545 74 78.6303 74 78V10H68V78C68 79.5759 68.2587 81.1363 68.7612 82.5922C69.2638 84.0481 70.0003 85.371 70.9289 86.4853C71.8575 87.5996 72.9599 88.4835 74.1732 89.0866C75.3864 89.6896 76.6868 90 78 90C79.3132 90 80.6136 89.6896 81.8268 89.0866C83.0401 88.4835 84.1425 87.5996 85.0711 86.4853C85.9997 85.371 86.7362 84.0481 87.2388 82.5922Z" fill="white"/>
<path fill-rule="evenodd" clip-rule="evenodd" d="M116 72C116 70.4241 115.741 68.8637 115.239 67.4078C114.736 65.9519 114 64.629 113.071 63.5147C112.142 62.4004 111.04 61.5165 109.827 60.9134C108.614 60.3104 107.313 60 106 60C104.687 60 103.386 60.3104 102.173 60.9134C100.96 61.5165 99.8575 62.4004 98.9289 63.5147C98.0003 64.629 97.2638 65.9519 96.7612 67.4078C96.2587 68.8637 96 70.4241 96 72V140H102V89.0004C103.213 89.6035 104.687 90 106 90C107.313 90 108.614 89.6896 109.827 89.0866C111.04 88.4835 112.142 87.5996 113.071 86.4853C114 85.371 114.736 84.0481 115.239 82.5922C115.741 81.1363 116 79.5759 116 78V72ZM102 71.9231C102 71.2766 102.103 70.6364 102.304 70.0391C102.506 69.4418 102.8 68.8991 103.172 68.4419C103.543 67.9848 103.984 67.6222 104.469 67.3747C104.955 67.1273 105.475 67 106 67C106.525 67 107.045 67.1273 107.531 67.3747C108.016 67.6222 108.457 67.9848 108.828 68.4419C109.2 68.8991 109.494 69.4418 109.696 70.0391C109.897 70.6364 110 71.2766 110 71.9231V78.0769C110 78.7234 109.897 79.3636 109.696 79.9609C109.494 80.5582 109.2 81.1009 108.828 81.5581C108.457 82.0152 108.016 82.3778 107.531 82.6253C107.045 82.8727 106.525 83 106 83C105.475 83 104.955 82.8727 104.469 82.6253C103.984 82.3778 103.543 82.0152 103.172 81.5581C102.8 81.1009 102.506 80.5582 102.304 79.9609C102.103 79.3636 102 78.7234 102 78.0769V71.9231Z" fill="white"/>
<path fill-rule="evenodd" clip-rule="evenodd" d="M165.827 60.9134C164.614 60.3104 163.313 60 162 60C160.687 60 159.386 60.3104 158.173 60.9134C156.96 61.5165 155.858 62.4004 154.929 63.5147C154 64.629 153.264 65.9519 152.761 67.4078C152.259 68.8637 152 70.4241 152 72V78C152 79.5759 152.259 81.1363 152.761 82.5922C153.264 84.0481 154.001 85.371 154.929 86.4853C155.836 87.5738 156.909 88.4425 158.089 89.0443C158.117 89.0585 158.145 89.0726 158.173 89.0866C159.387 89.6896 160.687 90 162 90C163.313 90 164.614 89.6896 165.827 89.0866C166.602 88.7013 167.332 88.2015 168 87.6002V90H172V72C172 70.4241 171.741 68.8637 171.239 67.4078C170.736 65.9519 170 64.629 169.071 63.5147C168.736 63.1123 168.378 62.7399 168 62.4C167.332 61.7986 166.602 61.2987 165.827 60.9134ZM158 71.9231C158 71.2766 158.103 70.6364 158.304 70.0391C158.506 69.4418 158.8 68.8991 159.172 68.4419C159.543 67.9848 159.984 67.6222 160.469 67.3747C160.955 67.1273 161.475 67 162 67C162.525 67 163.045 67.1273 163.531 67.3747C164.016 67.6222 164.457 67.9848 164.828 68.4419C165.2 68.8991 165.494 69.4418 165.696 70.0391C165.897 70.6364 166 71.2766 166 71.9231V78.0769C166 78.7234 165.897 79.3636 165.696 79.9609C165.494 80.5582 165.2 81.1009 164.828 81.5581C164.457 82.0152 164.016 82.3778 163.531 82.6253C163.045 82.8727 162.525 83 162 83C161.475 83 160.955 82.8727 160.469 82.6253C159.984 82.3778 159.543 82.0152 159.172 81.5581C158.8 81.1009 158.506 80.5582 158.304 79.9609C158.103 79.3636 158 78.7234 158 78.0769V71.9231Z" fill="white"/>
<path d="M59.2388 17.4078C59.7413 18.8637 60 20.4241 60 22H54C54 21.3697 53.8965 20.7455 53.6955 20.1631C53.4945 19.5808 53.1999 19.0516 52.8284 18.6059C52.457 18.1602 52.016 17.8066 51.5307 17.5654C51.0454 17.3242 50.5253 17.2 50 17.2C49.4747 17.2 48.9546 17.3242 48.4693 17.5654C47.984 17.8066 47.543 18.1602 47.1716 18.6059C46.8001 19.0516 46.5055 19.5808 46.3045 20.1631C46.1035 20.7455 46 21.3697 46 22V90H40V22C40 20.4241 40.2587 18.8637 40.7612 17.4078C41.2638 15.9519 42.0003 14.629 42.9289 13.5147C43.8575 12.4004 44.9599 11.5165 46.1732 10.9134C47.3864 10.3104 48.6868 10 50 10C51.3132 10 52.6136 10.3104 53.8268 10.9134C55.0401 11.5165 56.1425 12.4004 57.0711 13.5147C57.9997 14.629 58.7362 15.9519 59.2388 17.4078Z" fill="white"/>
<path d="M54 60H60V90H54V60Z" fill="white"/>
</svg>
